<?xml version="1.0" encoding="UTF-8" standalone="no"?><!DOCTYPE svg PUBLIC "-//W3C//DTD SVG 1.1//EN" "http://www.w3.org/Graphics/SVG/1.1/DTD/svg11.dtd"><svg width="100%" height="100%" viewBox="0 0 437 107" version="1.1" xmlns="http://www.w3.org/2000/svg" xmlns:xlink="http://www.w3.org/1999/xlink" xml:space="preserve" xmlns:serif="http://www.serif.com/" style="fill-rule:evenodd;clip-rule:evenodd;stroke-linejoin:round;stroke-miterlimit:2;"><g><g transform="matrix(0.235721,0,0,0.235721,-175.88,-383.825)"><g transform="matrix(212.5,0,0,212.5,1102.45,1928.75)"><path d="M0.266,-0l0,-0.277l0.029,0.08l-0.304,-0.503l0.139,-0l0.244,0.405l-0.078,-0l0.246,-0.405l0.128,-0l-0.304,0.503l0.03,-0.08l0,0.277l-0.13,-0Z" style="fill:url(#_Linear1);fill-rule:nonzero;"/></g><g transform="matrix(212.5,0,0,212.5,1234.41,1928.75)"><path d="M-0.005,-0l0.315,-0.7l0.128,0l0.316,0.7l-0.136,-0l-0.271,-0.631l0.052,0l-0.27,0.631l-0.134,-0Zm0.145,-0.162l0.035,-0.102l0.378,0l0.035,0.102l-0.448,0Z" style="fill:url(#_Linear2);fill-rule:nonzero;"/></g><g transform="matrix(212.5,0,0,212.5,1391.45,1928.75)"><path d="M0.418,0.01c-0.053,0 -0.103,-0.009 -0.149,-0.026c-0.045,-0.018 -0.085,-0.043 -0.119,-0.075c-0.033,-0.033 -0.059,-0.071 -0.078,-0.115c-0.019,-0.044 -0.028,-0.092 -0.028,-0.144c-0,-0.052 0.009,-0.1 0.028,-0.144c0.019,-0.044 0.045,-0.082 0.079,-0.114c0.034,-0.033 0.074,-0.058 0.119,-0.075c0.045,-0.018 0.095,-0.027 0.149,-0.027c0.057,0 0.11,0.01 0.157,0.03c0.047,0.019 0.087,0.048 0.12,0.087l-0.084,0.079c-0.025,-0.027 -0.054,-0.048 -0.085,-0.061c-0.031,-0.014 -0.065,-0.021 -0.102,-0.021c-0.037,0 -0.07,0.006 -0.101,0.018c-0.03,0.012 -0.056,0.029 -0.079,0.051c-0.022,0.022 -0.039,0.048 -0.052,0.078c-0.012,0.03 -0.018,0.063 -0.018,0.099c-0,0.036 0.006,0.069 0.018,0.099c0.013,0.03 0.03,0.056 0.052,0.078c0.023,0.022 0.049,0.039 0.079,0.051c0.031,0.012 0.064,0.018 0.101,0.018c0.037,0 0.071,-0.007 0.102,-0.02c0.031,-0.014 0.06,-0.035 0.085,-0.063l0.084,0.08c-0.033,0.038 -0.073,0.067 -0.12,0.087c-0.047,0.02 -0.1,0.03 -0.158,0.03Z" style="fill:url(#_Linear3);fill-rule:nonzero;"/></g><g transform="matrix(212.5,0,0,212.5,1545.93,1928.75)"><path d="M0.586,-0.7l0.13,0l0,0.7l-0.13,-0l0,-0.7Zm-0.362,0.7l-0.13,-0l0,-0.7l0.13,0l0,0.7Zm0.372,-0.3l-0.383,0l0,-0.111l0.383,-0l0,0.111Z" style="fill:url(#_Linear4);fill-rule:nonzero;"/></g><g transform="matrix(212.5,0,0,212.5,1718.06,1928.75)"><path d="M0.236,-0l0,-0.59l-0.232,0l-0,-0.11l0.594,-0l0,0.11l-0.232,0l0,0.59l-0.13,-0Z" style="fill:url(#_Linear5);fill-rule:nonzero;"/></g><g transform="matrix(212.5,0,0,212.5,1845.98,1928.75)"><path d="M0.626,-0.7l0.073,0l0,0.7l-0.073,-0l0,-0.7Zm-0.438,0.7l-0.074,-0l0,-0.7l0.074,0l0,0.7Zm0.445,-0.323l-0.453,0l0,-0.065l0.453,0l0,0.065Z" style="fill:url(#_Linear6);fill-rule:nonzero;"/></g><g transform="matrix(212.5,0,0,212.5,2018.75,1928.75)"><path d="M0.002,-0l0.32,-0.7l0.073,0l0.32,0.7l-0.078,-0l-0.294,-0.657l0.03,0l-0.294,0.657l-0.077,-0Zm0.126,-0.187l0.022,-0.06l0.407,0l0.022,0.06l-0.451,0Z" style="fill:url(#_Linear7);fill-rule:nonzero;"/></g><g transform="matrix(212.5,0,0,212.5,2171.11,1928.75)"><path d="M0.18,-0.361l0.37,0l0,0.064l-0.37,0l-0,-0.064Zm0.008,0.361l-0.074,-0l-0,-0.7l0.48,0l-0,0.064l-0.406,0l-0,0.636Z" style="fill:url(#_Linear8);fill-rule:nonzero;"/></g><g transform="matrix(212.5,0,0,212.5,2305.62,1928.75)"><path d="M0.18,-0.387l0.37,0l0,0.063l-0.37,0l-0,-0.063Zm0.008,0.323l0.421,0l0,0.064l-0.495,-0l0,-0.7l0.48,0l0,0.064l-0.406,0l0,0.572Z" style="fill:url(#_Linear9);fill-rule:nonzero;"/></g><g transform="matrix(212.5,0,0,212.5,2447.78,1928.75)"><path d="M0.114,-0l0,-0.7l0.061,0l0.483,0.608l-0.032,0l0,-0.608l0.073,0l0,0.7l-0.061,-0l-0.482,-0.608l0.032,0l0,0.608l-0.074,-0Z" style="fill:url(#_Linear10);fill-rule:nonzero;"/></g><g transform="matrix(212.5,0,0,212.5,2620.55,1928.75)"></g></g><g id="g1249"><path id="rect1095" d="M48.337,29.459l-35.006,77.119l-11.169,-0l35.006,-77.119l11.169,0Z" style="fill:#b73a5d;"/><path id="rect1095-8" d="M32.802,29.459l-21.633,47.66l-11.169,-0l21.633,-47.66l11.169,0Z" style="fill:#6a2b6f;"/><path id="rect1095-85" d="M77.243,0l-35.005,77.119l-11.169,-0l35.005,-77.119l11.169,0Z" style="fill:#ef895d;"/><path id="rect1095-8-0" d="M79.406,29.459l-21.634,47.66l-11.169,-0l21.634,-47.66l11.169,0Z" style="fill:#f8ec6c;"/></g></g><defs><linearGradient id="_Linear1" x1="0" y1="0" x2="1" y2="0" gradientUnits="userSpaceOnUse" gradientTransform="matrix(6.82747,0,0,6.82747,0.202531,-0.35)"><stop offset="0" style="stop-color:#741f7a;stop-opacity:1"/><stop offset="0.28" style="stop-color:#b73a5d;stop-opacity:1"/><stop offset="0.69" style="stop-color:#ef895d;stop-opacity:1"/><stop offset="1" style="stop-color:#f8ec6c;stop-opacity:1"/></linearGradient><linearGradient id="_Linear2" x1="0" y1="0" x2="1" y2="0" gradientUnits="userSpaceOnUse" gradientTransform="matrix(6.82747,0,0,6.82747,-0.418469,-0.35)"><stop offset="0" style="stop-color:#741f7a;stop-opacity:1"/><stop offset="0.28" style="stop-color:#b73a5d;stop-opacity:1"/><stop offset="0.69" style="stop-color:#ef895d;stop-opacity:1"/><stop offset="1" style="stop-color:#f8ec6c;stop-opacity:1"/></linearGradient><linearGradient id="_Linear3" x1="0" y1="0" x2="1" y2="0" gradientUnits="userSpaceOnUse" gradientTransform="matrix(6.82747,0,0,6.82747,-1.15747,-0.35)"><stop offset="0" style="stop-color:#741f7a;stop-opacity:1"/><stop offset="0.28" style="stop-color:#b73a5d;stop-opacity:1"/><stop offset="0.69" style="stop-color:#ef895d;stop-opacity:1"/><stop offset="1" style="stop-color:#f8ec6c;stop-opacity:1"/></linearGradient><linearGradient id="_Linear4" x1="0" y1="0" x2="1" y2="0" gradientUnits="userSpaceOnUse" gradientTransform="matrix(6.82747,0,0,6.82747,-1.88447,-0.35)"><stop offset="0" style="stop-color:#741f7a;stop-opacity:1"/><stop offset="0.28" style="stop-color:#b73a5d;stop-opacity:1"/><stop offset="0.69" style="stop-color:#ef895d;stop-opacity:1"/><stop offset="1" style="stop-color:#f8ec6c;stop-opacity:1"/></linearGradient><linearGradient id="_Linear5" x1="0" y1="0" x2="1" y2="0" gradientUnits="userSpaceOnUse" gradientTransform="matrix(6.82747,0,0,6.82747,-2.69447,-0.35)"><stop offset="0" style="stop-color:#741f7a;stop-opacity:1"/><stop offset="0.28" style="stop-color:#b73a5d;stop-opacity:1"/><stop offset="0.69" style="stop-color:#ef895d;stop-opacity:1"/><stop offset="1" style="stop-color:#f8ec6c;stop-opacity:1"/></linearGradient><linearGradient id="_Linear6" x1="0" y1="0" x2="1" y2="0" gradientUnits="userSpaceOnUse" gradientTransform="matrix(6.82747,0,0,6.82747,-3.29647,-0.35)"><stop offset="0" style="stop-color:#741f7a;stop-opacity:1"/><stop offset="0.28" style="stop-color:#b73a5d;stop-opacity:1"/><stop offset="0.69" style="stop-color:#ef895d;stop-opacity:1"/><stop offset="1" style="stop-color:#f8ec6c;stop-opacity:1"/></linearGradient><linearGradient id="_Linear7" x1="0" y1="0" x2="1" y2="0" gradientUnits="userSpaceOnUse" gradientTransform="matrix(6.82747,0,0,6.82747,-4.10947,-0.35)"><stop offset="0" style="stop-color:#741f7a;stop-opacity:1"/><stop offset="0.28" style="stop-color:#b73a5d;stop-opacity:1"/><stop offset="0.69" style="stop-color:#ef895d;stop-opacity:1"/><stop offset="1" style="stop-color:#f8ec6c;stop-opacity:1"/></linearGradient><linearGradient id="_Linear8" x1="0" y1="0" x2="1" y2="0" gradientUnits="userSpaceOnUse" gradientTransform="matrix(6.82747,0,0,6.82747,-4.82647,-0.35)"><stop offset="0" style="stop-color:#741f7a;stop-opacity:1"/><stop offset="0.28" style="stop-color:#b73a5d;stop-opacity:1"/><stop offset="0.69" style="stop-color:#ef895d;stop-opacity:1"/><stop offset="1" style="stop-color:#f8ec6c;stop-opacity:1"/></linearGradient><linearGradient id="_Linear9" x1="0" y1="0" x2="1" y2="0" gradientUnits="userSpaceOnUse" gradientTransform="matrix(6.82747,0,0,6.82747,-5.45947,-0.35)"><stop offset="0" style="stop-color:#741f7a;stop-opacity:1"/><stop offset="0.28" style="stop-color:#b73a5d;stop-opacity:1"/><stop offset="0.69" style="stop-color:#ef895d;stop-opacity:1"/><stop offset="1" style="stop-color:#f8ec6c;stop-opacity:1"/></linearGradient><linearGradient id="_Linear10" x1="0" y1="0" x2="1" y2="0" gradientUnits="userSpaceOnUse" gradientTransform="matrix(6.82747,0,0,6.82747,-6.12847,-0.35)"><stop offset="0" style="stop-color:#741f7a;stop-opacity:1"/><stop offset="0.28" style="stop-color:#b73a5d;stop-opacity:1"/><stop offset="0.69" style="stop-color:#ef895d;stop-opacity:1"/><stop offset="1" style="stop-color:#f8ec6c;stop-opacity:1"/></linearGradient></defs></svg>